<svg xmlns="http://www.w3.org/2000/svg" viewBox="0 0 70 22.02"><defs><style>.cls-1{fill:#4285f4;}.cls-2{fill:#ea4335;}.cls-3{fill:#fbbc05;}.cls-4{fill:#34a853;}</style></defs><title>google</title><g id="Layer_2" data-name="Layer 2"><g id="tabs-option3"><path class="cls-1" d="M8.74,7.84V10.2h5.63a5,5,0,0,1-1.28,3,5.78,5.78,0,0,1-4.35,1.72A6.18,6.18,0,0,1,2.57,8.63,6.17,6.17,0,0,1,8.74,2.37,6,6,0,0,1,13,4.05l1.66-1.66A8.13,8.13,0,0,0,8.74,0,8.74,8.74,0,0,0,0,8.62a8.74,8.74,0,0,0,8.74,8.62,7.92,7.92,0,0,0,6-2.42,7.79,7.79,0,0,0,2-5.5,7.27,7.27,0,0,0-.13-1.48Z"/><path class="cls-2" d="M23.83,5.93a5.48,5.48,0,0,0-5.58,5.56,5.59,5.59,0,0,0,11.17,0A5.48,5.48,0,0,0,23.83,5.93Zm0,8.93a3.22,3.22,0,0,1-3.14-3.37,3.15,3.15,0,1,1,6.29,0A3.22,3.22,0,0,1,23.83,14.86Z"/><path class="cls-1" d="M51.2,7.17h-.08a3.87,3.87,0,0,0-2.93-1.24A5.4,5.4,0,0,0,43,11.49a5.42,5.42,0,0,0,5.2,5.56,3.81,3.81,0,0,0,2.93-1.26h.08v.78c0,2.12-1.14,3.26-3,3.26a3.08,3.08,0,0,1-2.8-2l-2.13.88A5.3,5.3,0,0,0,48.23,22c2.87,0,5.29-1.69,5.29-5.8v-10H51.2Zm-2.8,7.69a3.11,3.11,0,0,1-3-3.37,3.1,3.1,0,0,1,3-3.37,3.14,3.14,0,0,1,3,3.39A3.11,3.11,0,0,1,48.4,14.86Z"/><path class="cls-3" d="M36.28,5.93a5.48,5.48,0,0,0-5.58,5.56,5.59,5.59,0,0,0,11.17,0A5.48,5.48,0,0,0,36.28,5.93Zm0,8.93a3.22,3.22,0,0,1-3.14-3.37,3.15,3.15,0,1,1,6.28,0A3.22,3.22,0,0,1,36.28,14.86Z"/><path class="cls-4" d="M55.44.23h2.4V17.05h-2.4Z"/><path class="cls-2" d="M65.26,14.86a2.83,2.83,0,0,1-2.7-1.68L70,10.1l-.25-.63A5.17,5.17,0,0,0,65,5.93a5.29,5.29,0,0,0-5.25,5.56,5.44,5.44,0,0,0,5.52,5.56,5.53,5.53,0,0,0,4.63-2.46L68,13.33a3.19,3.19,0,0,1-2.74,1.53ZM65.09,8a2.18,2.18,0,0,1,2.1,1.22l-5,2.08A3,3,0,0,1,65.09,8Z"/></g></g></svg>